STARTFONT 2.3
FONT -FontForge-Righteous-Book-R-Normal--10-100-72-72-P-54-ISO10646-1
SIZE 10 72 72  4
FONTBOUNDINGBOX 13 13 -2 -3
COMMENT "Generated by fontforge, http://fontforge.sourceforge.net"
COMMENT "Copyright (c) 2011 by Brian J. Bonislawsky DBA Astigmatic (AOETI) (astigma@astigmatic.com), with ReservedFont Name "Righteous""
STARTPROPERTIES 40
FOUNDRY "FontForge"
FAMILY_NAME "Righteous"
WEIGHT_NAME "Book"
SLANT "R"
SETWIDTH_NAME "Normal"
ADD_STYLE_NAME ""
PIXEL_SIZE 10
POINT_SIZE 100
RESOLUTION_X 72
RESOLUTION_Y 72
SPACING "P"
AVERAGE_WIDTH 54
CHARSET_REGISTRY "ISO10646"
CHARSET_ENCODING "1"
FONTNAME_REGISTRY ""
CHARSET_COLLECTIONS "ISO8859-2 ISO8859-9 ISO8859-4 ISO10646-1"
BITS_PER_PIXEL 4
FONT_NAME "Righteous-Regular"
FACE_NAME "Righteous"
COPYRIGHT "Copyright (c) 2011 by Brian J. Bonislawsky DBA Astigmatic (AOETI) (astigma@astigmatic.com), with ReservedFont Name "Righteous""
FONT_VERSION "1.000"
FONT_ASCENT 8
FONT_DESCENT 2
UNDERLINE_POSITION -1
UNDERLINE_THICKNESS 1
X_HEIGHT 5
CAP_HEIGHT 6
RAW_ASCENT 799
RAW_DESCENT 200
NORM_SPACE 3
RELATIVE_WEIGHT 40
RELATIVE_SETWIDTH 50
SUPERSCRIPT_X 0
SUPERSCRIPT_Y 4
SUPERSCRIPT_SIZE 6
SUBSCRIPT_X 0
SUBSCRIPT_Y 1
SUBSCRIPT_SIZE 6
AVG_LOWERCASE_WIDTH 53
AVG_UPPERCASE_WIDTH 64
ENDPROPERTIES
CHARS 372
STARTCHAR space
ENCODING 32
SWIDTH 279 0
DWIDTH 3 0
BBX 1 1 0 0
BITMAP
00
ENDCHAR
STARTCHAR exclam
ENCODING 33
SWIDTH 274 0
DWIDTH 3 0
BBX 3 8 0 -1
BITMAP
7F30
6F20
5F10
4F00
3E00
1800
6F20
1400
ENDCHAR
STARTCHAR quotedbl
ENCODING 34
SWIDTH 409 0
DWIDTH 4 0
BBX 4 3 0 4
BITMAP
7DC8
6CA7
1221
ENDCHAR
STARTCHAR numbersign
ENCODING 35
SWIDTH 561 0
DWIDTH 6 0
BBX 6 5 0 1
BITMAP
01B490
0DFEE2
1B9E70
8FFF90
2D5A00
ENDCHAR
STARTCHAR dollar
ENCODING 36
SWIDTH 458 0
DWIDTH 5 0
BBX 5 7 0 0
BITMAP
02C000
1AE900
8C7600
3EFD10
588E20
48D400
02C000
ENDCHAR
STARTCHAR percent
ENCODING 37
SWIDTH 685 0
DWIDTH 7 0
BBX 7 8 0 0
BITMAP
01000000
5EC07900
95C3D200
7BE98000
055D5500
00A9DC50
03D5A770
0B51DE30
ENDCHAR
STARTCHAR ampersand
ENCODING 38
SWIDTH 485 0
DWIDTH 5 0
BBX 5 7 0 0
BITMAP
00B400
2DEE40
5B0000
2FF700
5B1000
2EDD30
01C510
ENDCHAR
STARTCHAR quotesingle
ENCODING 39
SWIDTH 238 0
DWIDTH 2 0
BBX 2 3 0 4
BITMAP
7D
6C
12
ENDCHAR
STARTCHAR parenleft
ENCODING 40
SWIDTH 351 0
DWIDTH 4 0
BBX 4 9 0 -1
BITMAP
07E2
1F70
6F10
9D00
9C00
8D00
5F20
1E80
06F2
ENDCHAR
STARTCHAR parenright
ENCODING 41
SWIDTH 351 0
DWIDTH 4 0
BBX 4 9 0 -1
BITMAP
8E10
1E90
08D0
05F1
04F2
06F1
0AC0
1E70
9D10
ENDCHAR
STARTCHAR asterisk
ENCODING 42
SWIDTH 589 0
DWIDTH 6 0
BBX 6 6 0 3
BITMAP
004300
01CA20
6EEEF5
18FF70
0BEEA0
094580
ENDCHAR
STARTCHAR plus
ENCODING 43
SWIDTH 485 0
DWIDTH 5 0
BBX 5 5 0 1
BITMAP
02A100
26F410
9FFF70
15F310
027100
ENDCHAR
STARTCHAR comma
ENCODING 44
SWIDTH 264 0
DWIDTH 3 0
BBX 3 4 0 -2
BITMAP
1400
7F20
1D00
0100
ENDCHAR
STARTCHAR hyphen
ENCODING 45
SWIDTH 528 0
DWIDTH 5 0
BBX 5 3 0 2
BITMAP
133320
6FFFA0
122210
ENDCHAR
STARTCHAR period
ENCODING 46
SWIDTH 263 0
DWIDTH 3 0
BBX 3 3 0 -1
BITMAP
1400
7F10
1400
ENDCHAR
STARTCHAR slash
ENCODING 47
SWIDTH 490 0
DWIDTH 5 0
BBX 5 7 0 0
BITMAP
001E60
007E10
00D900
04F300
0AB000
2F5000
8E0000
ENDCHAR
STARTCHAR zero
ENCODING 48
SWIDTH 642 0
DWIDTH 6 0
BBX 6 9 0 -1
BITMAP
000100
07EFB1
4F84DA
8D007E
9C005F
8D007E
3F84DA
07EFB1
000100
ENDCHAR
STARTCHAR one
ENCODING 49
SWIDTH 317 0
DWIDTH 3 0
BBX 3 7 0 0
BITMAP
9F70
4E70
0E70
0E70
0E70
0E70
0E70
ENDCHAR
STARTCHAR two
ENCODING 50
SWIDTH 570 0
DWIDTH 6 0
BBX 6 7 0 0
BITMAP
4FFE70
2668F3
0036F4
1DFFA0
7E4200
8D6661
8FFFF2
ENDCHAR
STARTCHAR three
ENCODING 51
SWIDTH 586 0
DWIDTH 6 0
BBX 6 7 0 0
BITMAP
8FFE80
3668F4
0235F5
09FFE1
0235F5
3668F4
8FFE80
ENDCHAR
STARTCHAR four
ENCODING 52
SWIDTH 630 0
DWIDTH 6 0
BBX 6 7 0 0
BITMAP
0F6141
2F43F3
4F23F3
6E03F3
9FCDFB
699AF9
0003F3
ENDCHAR
STARTCHAR five
ENCODING 53
SWIDTH 585 0
DWIDTH 6 0
BBX 6 7 0 0
BITMAP
2FFFF3
4F7661
5F7510
7FFFE2
0001E7
3667F5
8FFE90
ENDCHAR
STARTCHAR six
ENCODING 54
SWIDTH 615 0
DWIDTH 6 0
BBX 6 8 0 -1
BITMAP
03E900
0DB300
5FFFD2
8F53D9
9E00AB
5F75E8
09FFB1
001200
ENDCHAR
STARTCHAR seven
ENCODING 55
SWIDTH 516 0
DWIDTH 5 0
BBX 5 7 0 0
BITMAP
CFFFE0
566E90
002F40
008E00
00D900
03F400
09E000
ENDCHAR
STARTCHAR eight
ENCODING 56
SWIDTH 618 0
DWIDTH 6 0
BBX 6 9 0 -1
BITMAP
002200
09FFB1
3F64F5
1F86F4
1DEEE3
8D10BB
8E21CA
1BFFD2
001200
ENDCHAR
STARTCHAR nine
ENCODING 57
SWIDTH 616 0
DWIDTH 6 0
BBX 6 8 0 0
BITMAP
001200
0AFFA1
6F66F8
9C00BB
7E43EA
1CFFF7
0029E1
007F50
ENDCHAR
STARTCHAR colon
ENCODING 58
SWIDTH 276 0
DWIDTH 3 0
BBX 3 6 0 -1
BITMAP
0100
5F20
2700
0400
6F20
1400
ENDCHAR
STARTCHAR semicolon
ENCODING 59
SWIDTH 276 0
DWIDTH 3 0
BBX 3 7 0 -2
BITMAP
0100
5F20
2700
0400
6F30
1D10
0100
ENDCHAR
STARTCHAR less
ENCODING 60
SWIDTH 478 0
DWIDTH 5 0
BBX 5 6 0 1
BITMAP
002800
02DD10
2DD200
6FA000
06FA10
005B10
ENDCHAR
STARTCHAR equal
ENCODING 61
SWIDTH 539 0
DWIDTH 5 0
BBX 5 5 0 1
BITMAP
133320
5FFFB0
255540
5FFFB0
122210
ENDCHAR
STARTCHAR greater
ENCODING 62
SWIDTH 478 0
DWIDTH 5 0
BBX 5 6 0 1
BITMAP
181000
3EB100
04EB00
01CE30
2DE300
2C3000
ENDCHAR
STARTCHAR question
ENCODING 63
SWIDTH 603 0
DWIDTH 6 0
BBX 6 8 0 -1
BITMAP
9FFFB1
4666E8
0003D9
01CFE2
05F410
027000
07F100
014000
ENDCHAR
STARTCHAR at
ENCODING 64
SWIDTH 629 0
DWIDTH 6 0
BBX 6 7 0 -1
BITMAP
004510
1CB9D3
69ADAC
97DB8E
5B7997
08DA00
001200
ENDCHAR
STARTCHAR A
ENCODING 65
SWIDTH 673 0
DWIDTH 7 0
BBX 7 7 0 0
BITMAP
04CEA200
1EB7DC00
5F105F20
6F004F30
6FCCDF30
6F99AF30
6F004F30
ENDCHAR
STARTCHAR B
ENCODING 66
SWIDTH 666 0
DWIDTH 7 0
BBX 7 7 0 0
BITMAP
5FFFE600
5F769F20
5F437F20
5FFFFC00
5F437F20
5F769F20
5FFFE600
ENDCHAR
STARTCHAR C
ENCODING 67
SWIDTH 640 0
DWIDTH 6 0
BBX 7 9 0 -1
BITMAP
00010000
03CFFA10
2EC67A00
8E100000
BB000000
9D100000
2EC56A00
04DFFB10
00021000
ENDCHAR
STARTCHAR D
ENCODING 68
SWIDTH 653 0
DWIDTH 7 0
BBX 7 7 0 0
BITMAP
5FFD7000
5F79F900
5F107F10
5F103F30
5F107F10
5F79F900
5FFD8000
ENDCHAR
STARTCHAR E
ENCODING 69
SWIDTH 578 0
DWIDTH 6 0
BBX 6 7 0 0
BITMAP
5FFFF7
5F7663
5F4310
5FFF50
5F4310
5F7663
5FFFF7
ENDCHAR
STARTCHAR F
ENCODING 70
SWIDTH 562 0
DWIDTH 6 0
BBX 6 7 0 0
BITMAP
5FFFF8
5F7663
5F4300
5FFF20
5F4300
5F1000
5F1000
ENDCHAR
STARTCHAR G
ENCODING 71
SWIDTH 665 0
DWIDTH 7 0
BBX 7 8 0 -1
BITMAP
03CFEA10
2EC67B00
8E100000
BB001720
9D102F30
2EB56F30
04DFFB10
00021000
ENDCHAR
STARTCHAR H
ENCODING 72
SWIDTH 689 0
DWIDTH 7 0
BBX 7 7 0 0
BITMAP
5F102F40
5F102F40
5F435F40
5FFFFF40
5F435F40
5F102F40
5F102F40
ENDCHAR
STARTCHAR I
ENCODING 73
SWIDTH 270 0
DWIDTH 3 0
BBX 3 7 0 0
BITMAP
5F10
5F10
5F10
5F10
5F10
5F10
5F10
ENDCHAR
STARTCHAR J
ENCODING 74
SWIDTH 416 0
DWIDTH 4 0
BBX 4 7 0 0
BITMAP
00C9
00C9
00C9
00C9
00D8
6AF3
DD50
ENDCHAR
STARTCHAR K
ENCODING 75
SWIDTH 625 0
DWIDTH 6 0
BBX 7 7 0 0
BITMAP
5F10BC10
5F17E200
5F4F6000
5FEF5000
5FDBD000
5F33F600
5F109E10
ENDCHAR
STARTCHAR L
ENCODING 76
SWIDTH 562 0
DWIDTH 6 0
BBX 6 7 0 0
BITMAP
5F1000
5F1000
5F1000
5F1000
5F1000
5F7663
5FFFF8
ENDCHAR
STARTCHAR M
ENCODING 77
SWIDTH 819 0
DWIDTH 8 0
BBX 8 8 0 0
BITMAP
00100100
0AFDCFC1
5F6CE6E7
6F09C0C9
6F09C0C9
6F09C0C9
6F09C0C9
6F09C0C9
ENDCHAR
STARTCHAR N
ENCODING 78
SWIDTH 689 0
DWIDTH 7 0
BBX 7 7 0 0
BITMAP
5F702F40
5FE12F40
5FD92F40
5F5F5F40
5F1BDF40
5F12FF40
5F108F40
ENDCHAR
STARTCHAR O
ENCODING 79
SWIDTH 777 0
DWIDTH 8 0
BBX 8 9 0 -1
BITMAP
00010000
03CFFA10
2EC67EC0
8E1003F5
BB0000E7
9D1003F5
2EC56DD0
04DFFB20
00021000
ENDCHAR
STARTCHAR P
ENCODING 80
SWIDTH 642 0
DWIDTH 6 0
BBX 7 7 0 0
BITMAP
5FFFB200
5F77DD00
5F104F30
5F106F20
5FCCF900
5F985000
5F100000
ENDCHAR
STARTCHAR Q
ENCODING 81
SWIDTH 777 0
DWIDTH 8 0
BBX 8 10 0 -2
BITMAP
00010000
03CFFA10
2EC67EC0
8E1003F5
BB0000E7
9D1003F5
2EC56DD0
04DFFC20
0002AD10
00001630
ENDCHAR
STARTCHAR R
ENCODING 82
SWIDTH 651 0
DWIDTH 7 0
BBX 7 7 0 0
BITMAP
5FFFB200
5F77DD00
5F104F30
5F106F20
5FCCF900
5F9BF200
5F11E800
ENDCHAR
STARTCHAR S
ENCODING 83
SWIDTH 610 0
DWIDTH 6 0
BBX 6 7 0 0
BITMAP
2BFFF8
9D6663
AC3310
3EFFE4
0133BB
2666DA
6FFFC2
ENDCHAR
STARTCHAR T
ENCODING 84
SWIDTH 578 0
DWIDTH 6 0
BBX 6 7 0 0
BITMAP
EFFFFA
66DB64
00C900
00C900
00C900
00C900
00C900
ENDCHAR
STARTCHAR U
ENCODING 85
SWIDTH 673 0
DWIDTH 7 0
BBX 7 7 0 0
BITMAP
6F004F30
6F004F30
6F004F30
6F004F30
5F105F20
1EB7DC00
04CEB200
ENDCHAR
STARTCHAR V
ENCODING 86
SWIDTH 602 0
DWIDTH 6 0
BBX 6 7 0 0
BITMAP
CB00BD
7F11F8
3F55F3
0DAAD0
08EE80
03FF30
00DD00
ENDCHAR
STARTCHAR W
ENCODING 87
SWIDTH 819 0
DWIDTH 8 0
BBX 8 8 0 -1
BITMAP
6F09C0C9
6F09C0C9
6F09C0C9
6F09C0C9
6F09C0C9
5F6CE5E7
0AFDCFC1
00100100
ENDCHAR
STARTCHAR X
ENCODING 88
SWIDTH 608 0
DWIDTH 6 0
BBX 6 7 0 0
BITMAP
AE10DC
2E98F3
07FF80
01EF10
07FF80
2E98F3
AE10DC
ENDCHAR
STARTCHAR Y
ENCODING 89
SWIDTH 620 0
DWIDTH 6 0
BBX 6 7 0 0
BITMAP
BB008E
BB008E
AC009D
4FA9F7
05DE70
009C00
009C00
ENDCHAR
STARTCHAR Z
ENCODING 90
SWIDTH 586 0
DWIDTH 6 0
BBX 6 7 0 0
BITMAP
CFFFF6
566ED0
006F50
00DC00
07F400
1EE664
8FFFFA
ENDCHAR
STARTCHAR bracketleft
ENCODING 91
SWIDTH 380 0
DWIDTH 4 0
BBX 4 9 0 -1
BITMAP
6FF7
6F63
6F10
6F10
6F10
6F10
6F10
6F73
6FF7
ENDCHAR
STARTCHAR backslash
ENCODING 92
SWIDTH 490 0
DWIDTH 5 0
BBX 5 7 0 0
BITMAP
8E0000
2F5000
0AB000
04F300
00D900
007E10
001E60
ENDCHAR
STARTCHAR bracketright
ENCODING 93
SWIDTH 380 0
DWIDTH 4 0
BBX 4 9 0 -1
BITMAP
9FF3
48F3
04F3
04F3
04F3
04F3
04F3
48F3
9FF3
ENDCHAR
STARTCHAR asciicircum
ENCODING 94
SWIDTH 293 0
DWIDTH 3 0
BBX 3 2 0 5
BITMAP
3C20
B9A0
ENDCHAR
STARTCHAR underscore
ENCODING 95
SWIDTH 598 0
DWIDTH 6 0
BBX 6 2 0 -3
BITMAP
1FFFF1
055550
ENDCHAR
STARTCHAR grave
ENCODING 96
SWIDTH 225 0
DWIDTH 2 0
BBX 3 2 0 5
BITMAP
8500
5D10
ENDCHAR
STARTCHAR a
ENCODING 97
SWIDTH 607 0
DWIDTH 6 0
BBX 6 6 0 0
BITMAP
015501
2EFFC9
9C13E9
B900C9
8E57F9
1AFE88
ENDCHAR
STARTCHAR b
ENCODING 98
SWIDTH 597 0
DWIDTH 6 0
BBX 6 8 0 0
BITMAP
330000
9B0000
9B5510
9FFFD2
9E21D9
8C00AA
5F76E7
08FFA0
ENDCHAR
STARTCHAR c
ENCODING 99
SWIDTH 521 0
DWIDTH 5 0
BBX 5 6 0 0
BITMAP
015500
2DFFC0
9D1260
B90000
8E5790
1AFF80
ENDCHAR
STARTCHAR d
ENCODING 100
SWIDTH 606 0
DWIDTH 6 0
BBX 6 8 0 0
BITMAP
000043
0000C8
0155C8
2EFFF8
9C13F8
B900D8
7E57F8
0AFE88
ENDCHAR
STARTCHAR e
ENCODING 101
SWIDTH 524 0
DWIDTH 5 0
BBX 5 6 0 0
BITMAP
015500
2EFFC0
9C3E60
BAD900
7FD790
0AFF80
ENDCHAR
STARTCHAR f
ENCODING 102
SWIDTH 395 0
DWIDTH 4 0
BBX 5 8 0 0
BITMAP
02AC20
0DC820
4F6300
CFFD00
3F4100
2F3000
2F3000
2F3000
ENDCHAR
STARTCHAR g
ENCODING 103
SWIDTH 607 0
DWIDTH 6 0
BBX 6 8 0 -2
BITMAP
015501
2EFFC9
9C13E9
B900C9
8E57F9
1AFFF8
0048F4
00BD60
ENDCHAR
STARTCHAR h
ENCODING 104
SWIDTH 562 0
DWIDTH 6 0
BBX 6 8 0 0
BITMAP
240000
7D0000
7D4300
7FFF80
7E26F1
7D02F3
7D02F3
7D02F3
ENDCHAR
STARTCHAR i
ENCODING 105
SWIDTH 235 0
DWIDTH 2 0
BBX 2 8 0 0
BITMAP
36
AF
25
7D
7D
7D
7D
7D
ENDCHAR
STARTCHAR j
ENCODING 106
SWIDTH 237 0
DWIDTH 2 0
BBX 5 10 -2 -2
BITMAP
003600
009F10
002500
007D00
007D00
007D00
007D00
008D00
26E800
7E9100
ENDCHAR
STARTCHAR k
ENCODING 107
SWIDTH 539 0
DWIDTH 5 0
BBX 6 8 0 0
BITMAP
240000
7D0000
7D0131
7D0BC0
7D8E10
7FFE10
7F8E80
7D07F2
ENDCHAR
STARTCHAR l
ENCODING 108
SWIDTH 235 0
DWIDTH 2 0
BBX 2 8 0 0
BITMAP
24
7D
7D
7D
7D
7D
7D
7D
ENDCHAR
STARTCHAR m
ENCODING 109
SWIDTH 762 0
DWIDTH 8 0
BBX 8 6 0 0
BITMAP
11413400
7EFEFFA0
7E1E94F2
7D0C83F2
7D0C83F2
7D0C83F2
ENDCHAR
STARTCHAR n
ENCODING 110
SWIDTH 562 0
DWIDTH 6 0
BBX 6 6 0 0
BITMAP
104300
7EFF80
7E26F1
7D02F3
7D02F3
7D02F3
ENDCHAR
STARTCHAR o
ENCODING 111
SWIDTH 579 0
DWIDTH 6 0
BBX 6 6 0 0
BITMAP
015500
2EFFC0
9D12E6
B900D8
7E57F4
0AFE70
ENDCHAR
STARTCHAR p
ENCODING 112
SWIDTH 608 0
DWIDTH 6 0
BBX 6 8 0 -2
BITMAP
104510
7CFFE3
7F30CA
7E008C
7F85E9
7EEFB1
7D0100
7D0000
ENDCHAR
STARTCHAR q
ENCODING 113
SWIDTH 607 0
DWIDTH 6 0
BBX 6 8 0 -2
BITMAP
015501
2EFFC9
9C13E9
B900C9
7E57F9
0AFEE9
0010C9
0000C9
ENDCHAR
STARTCHAR r
ENCODING 114
SWIDTH 414 0
DWIDTH 4 0
BBX 4 6 0 0
BITMAP
1023
7CFF
7F42
7D00
7D00
7D00
ENDCHAR
STARTCHAR s
ENCODING 115
SWIDTH 523 0
DWIDTH 5 0
BBX 5 6 0 0
BITMAP
023320
5FFFA0
9D5410
4EFFB0
357AF0
AFFE70
ENDCHAR
STARTCHAR t
ENCODING 116
SWIDTH 437 0
DWIDTH 4 0
BBX 5 8 0 0
BITMAP
151000
3F2000
5F5300
DFFF20
4F3200
3F2000
1E9510
05DF20
ENDCHAR
STARTCHAR u
ENCODING 117
SWIDTH 562 0
DWIDTH 6 0
BBX 6 7 0 -1
BITMAP
230140
8C03F2
8C03F2
8C03F2
6E5AF2
0AFEB2
001000
ENDCHAR
STARTCHAR v
ENCODING 118
SWIDTH 532 0
DWIDTH 5 0
BBX 6 6 0 0
BITMAP
320141
BC07F1
5F2CA0
0E9F40
09FD00
03F800
ENDCHAR
STARTCHAR w
ENCODING 119
SWIDTH 756 0
DWIDTH 8 0
BBX 8 7 0 -1
BITMAP
23031130
8C0D73F2
8C0D73F2
8C0D73F2
7E5EA8F1
1CFCEF70
00100000
ENDCHAR
STARTCHAR x
ENCODING 120
SWIDTH 528 0
DWIDTH 5 0
BBX 6 6 0 0
BITMAP
430241
7F3CB0
0BEE10
05F900
1DBF40
AD1AD1
ENDCHAR
STARTCHAR y
ENCODING 121
SWIDTH 562 0
DWIDTH 6 0
BBX 6 8 0 -2
BITMAP
230140
8C03F2
8C03F2
8C03F2
6E5AF2
0AFFF1
016CC0
04FB20
ENDCHAR
STARTCHAR z
ENCODING 122
SWIDTH 481 0
DWIDTH 5 0
BBX 5 6 0 0
BITMAP
233320
CFFF30
12C900
05E100
1DB530
7FFF90
ENDCHAR
STARTCHAR braceleft
ENCODING 123
SWIDTH 466 0
DWIDTH 5 0
BBX 5 9 0 -1
BITMAP
03DF40
08E620
08E000
3BC000
CF6000
2AD000
08E000
07E620
03DF40
ENDCHAR
STARTCHAR bar
ENCODING 124
SWIDTH 267 0
DWIDTH 3 0
BBX 3 9 0 -1
BITMAP
6F10
6F10
6F10
6F10
6F10
6F10
6F10
6F10
6F10
ENDCHAR
STARTCHAR braceright
ENCODING 125
SWIDTH 466 0
DWIDTH 5 0
BBX 5 9 0 -1
BITMAP
9FB000
48F200
04F300
02F720
00BF70
03F610
04F300
48F200
9FB000
ENDCHAR
STARTCHAR asciitilde
ENCODING 126
SWIDTH 451 0
DWIDTH 5 0
BBX 4 3 0 2
BITMAP
2838
7DDE
1211
ENDCHAR
STARTCHAR nonbreakingspace
ENCODING 160
SWIDTH 279 0
DWIDTH 3 0
BBX 1 1 0 0
BITMAP
00
ENDCHAR
STARTCHAR exclamdown
ENCODING 161
SWIDTH 274 0
DWIDTH 3 0
BBX 3 8 0 -2
BITMAP
4D10
3A10
3C00
4F00
5F10
5F20
6F20
3610
ENDCHAR
STARTCHAR cent
ENCODING 162
SWIDTH 462 0
DWIDTH 5 0
BBX 5 7 0 0
BITMAP
00D000
08F800
6D4910
980000
4E8C10
04E400
00D000
ENDCHAR
STARTCHAR sterling
ENCODING 163
SWIDTH 681 0
DWIDTH 7 0
BBX 7 7 0 0
BITMAP
01BE0000
09E60000
0BA00000
8FFA0000
3CC30110
0BC67F50
0BFFE900
ENDCHAR
STARTCHAR currency
ENCODING 164
SWIDTH 454 0
DWIDTH 5 0
BBX 5 5 0 1
BITMAP
210300
7ECD10
480C00
5DAD10
334500
ENDCHAR
STARTCHAR yen
ENCODING 165
SWIDTH 653 0
DWIDTH 7 0
BBX 7 7 0 0
BITMAP
8D005F10
8D005F10
7E107F00
2EC9E900
2BFFE800
3BDFB900
007F0000
ENDCHAR
STARTCHAR brokenbar
ENCODING 166
SWIDTH 269 0
DWIDTH 3 0
BBX 3 9 0 -1
BITMAP
5F10
5F10
5F10
5F10
0000
5F10
5F10
5F10
5F10
ENDCHAR
STARTCHAR section
ENCODING 167
SWIDTH 569 0
DWIDTH 6 0
BBX 6 7 0 0
BITMAP
1CFFD0
6F7740
4FFFC0
6E57F3
2EFFF1
2579F3
7FFFA0
ENDCHAR
STARTCHAR dieresis
ENCODING 168
SWIDTH 300 0
DWIDTH 3 0
BBX 3 2 0 5
BITMAP
6260
9390
ENDCHAR
STARTCHAR copyright
ENCODING 169
SWIDTH 655 0
DWIDTH 7 0
BBX 7 7 0 0
BITMAP
00341000
0999B400
58B83B00
89400910
59B73B00
09AAB400
00341000
ENDCHAR
STARTCHAR ordfeminine
ENCODING 170
SWIDTH 451 0
DWIDTH 5 0
BBX 4 6 0 2
BITMAP
0010
2CC9
661C
2CBA
1342
4997
ENDCHAR
STARTCHAR guillemotleft
ENCODING 171
SWIDTH 704 0
DWIDTH 7 0
BBX 7 5 0 0
BITMAP
01C51B50
1BC2BC10
8F37F300
0AE3AE30
00930930
ENDCHAR
STARTCHAR logicalnot
ENCODING 172
SWIDTH 529 0
DWIDTH 5 0
BBX 5 4 0 1
BITMAP
133320
6FFFA0
122BA0
000110
ENDCHAR
STARTCHAR uni00AD
ENCODING 173
SWIDTH 418 0
DWIDTH 4 0
BBX 4 3 0 2
BITMAP
1332
6FF9
1221
ENDCHAR
STARTCHAR registered
ENCODING 174
SWIDTH 439 0
DWIDTH 4 0
BBX 4 4 0 3
BITMAP
2BA6
7778
6888
0672
ENDCHAR
STARTCHAR macron
ENCODING 175
SWIDTH 247 0
DWIDTH 2 0
BBX 3 2 0 5
BITMAP
6630
AA40
ENDCHAR
STARTCHAR degree
ENCODING 176
SWIDTH 381 0
DWIDTH 4 0
BBX 4 4 0 3
BITMAP
2BA1
99B6
5EE3
0220
ENDCHAR
STARTCHAR plusminus
ENCODING 177
SWIDTH 516 0
DWIDTH 5 0
BBX 5 6 0 0
BITMAP
005100
14F620
7FFF90
13F510
258630
7FFF90
ENDCHAR
STARTCHAR twosuperior
ENCODING 178
SWIDTH 355 0
DWIDTH 4 0
BBX 3 4 0 3
BITMAP
5EC0
2BD0
7D90
3760
ENDCHAR
STARTCHAR threesuperior
ENCODING 179
SWIDTH 354 0
DWIDTH 4 0
BBX 4 4 0 3
BITMAP
6EC0
0CE0
3BE1
3740
ENDCHAR
STARTCHAR acute
ENCODING 180
SWIDTH 225 0
DWIDTH 2 0
BBX 2 2 0 5
BITMAP
3B
B8
ENDCHAR
STARTCHAR mu
ENCODING 181
SWIDTH 571 0
DWIDTH 6 0
BBX 6 9 0 -3
BITMAP
130041
6E01F4
6E01F4
6E01F4
6F68F4
6FFEA4
6B1000
6A0000
120000
ENDCHAR
STARTCHAR paragraph
ENCODING 182
SWIDTH 808 0
DWIDTH 8 0
BBX 8 7 0 0
BITMAP
06DFFFF6
4FACD6F6
9D09C0F6
7E19C0F6
1DEEC0F6
017DC0F6
0009C0F6
ENDCHAR
STARTCHAR periodcentered
ENCODING 183
SWIDTH 261 0
DWIDTH 3 0
BBX 3 3 0 2
BITMAP
1300
7F10
1400
ENDCHAR
STARTCHAR cedilla
ENCODING 184
SWIDTH 208 0
DWIDTH 2 0
BBX 2 4 0 -3
BITMAP
02
4A
9E
22
ENDCHAR
STARTCHAR onesuperior
ENCODING 185
SWIDTH 231 0
DWIDTH 2 0
BBX 2 4 0 3
BITMAP
8B
4B
4B
25
ENDCHAR
STARTCHAR ordmasculine
ENCODING 186
SWIDTH 432 0
DWIDTH 4 0
BBX 4 6 0 2
BITMAP
0010
2CC6
662B
2CB6
1342
4997
ENDCHAR
STARTCHAR guillemotright
ENCODING 187
SWIDTH 703 0
DWIDTH 7 0
BBX 7 5 0 0
BITMAP
4C14C100
1CC2CC10
03F83F80
2DB3DB10
39039000
ENDCHAR
STARTCHAR onequarter
ENCODING 188
SWIDTH 648 0
DWIDTH 6 0
BBX 7 7 0 0
BITMAP
4F02D100
0F097000
0F3D0000
06B84200
04C7AC00
0C49CE10
6A047D10
ENDCHAR
STARTCHAR onehalf
ENCODING 189
SWIDTH 637 0
DWIDTH 6 0
BBX 6 7 0 0
BITMAP
4F02D1
0F0970
0F3D00
06B873
04C3AE
0C46D7
6A08FD
ENDCHAR
STARTCHAR threequarters
ENCODING 190
SWIDTH 708 0
DWIDTH 7 0
BBX 7 7 0 0
BITMAP
8EA07900
2CD1D100
5BD88000
475D6210
00A6DA60
03D0FC90
0B516B80
ENDCHAR
STARTCHAR questiondown
ENCODING 191
SWIDTH 602 0
DWIDTH 6 0
BBX 6 8 0 -2
BITMAP
000C60
000940
000D50
08CF30
7F9400
9C0000
4FFFF9
026664
ENDCHAR
STARTCHAR Agrave
ENCODING 192
SWIDTH 673 0
DWIDTH 7 0
BBX 7 10 0 0
BITMAP
01B20000
01990000
00000000
04CEA200
1EB7DC00
5F105F20
6F004F30
6FCCDF30
6F99AF30
6F004F30
ENDCHAR
STARTCHAR Aacute
ENCODING 193
SWIDTH 673 0
DWIDTH 7 0
BBX 7 10 0 0
BITMAP
00049000
000D6000
00000000
04CEA200
1EB7DC00
5F105F20
6F004F30
6FCCDF30
6F99AF30
6F004F30
ENDCHAR
STARTCHAR Acircumflex
ENCODING 194
SWIDTH 673 0
DWIDTH 7 0
BBX 7 9 0 0
BITMAP
003B1000
00987000
04CEA200
1EB7DC00
5F105F20
6F004F30
6FCCDF30
6F99AF30
6F004F30
ENDCHAR
STARTCHAR Atilde
ENCODING 195
SWIDTH 673 0
DWIDTH 7 0
BBX 7 9 0 0
BITMAP
01C8C000
02A78000
04CEA200
1EB7DC00
5F105F20
6F004F30
6FCCDF30
6F99AF30
6F004F30
ENDCHAR
STARTCHAR Adieresis
ENCODING 196
SWIDTH 673 0
DWIDTH 7 0
BBX 7 9 0 0
BITMAP
00725000
01938000
04CEA200
1EB7DC00
5F105F20
6F004F30
6FCCDF30
6F99AF30
6F004F30
ENDCHAR
STARTCHAR Aring
ENCODING 197
SWIDTH 673 0
DWIDTH 7 0
BBX 7 9 0 0
BITMAP
00381000
008B4000
04DFB200
2EB7DC00
6F105F20
6F004F30
6FCCDF30
6F99AF30
6F004F30
ENDCHAR
STARTCHAR AE
ENCODING 198
SWIDTH 988 0
DWIDTH 10 0
BBX 10 7 0 0
BITMAP
04CFFFFFF8
1EB68F8663
5F104F5310
6F004FFF70
6FCCDF5310
6F99AF8663
6F004FFFF8
ENDCHAR
STARTCHAR Ccedilla
ENCODING 199
SWIDTH 640 0
DWIDTH 6 0
BBX 7 11 0 -3
BITMAP
00010000
03CFFA10
2EC67A00
8E100000
AB000000
8D100000
2EC56A00
03CFFB10
001D2000
007D3000
00130000
ENDCHAR
STARTCHAR Egrave
ENCODING 200
SWIDTH 578 0
DWIDTH 6 0
BBX 6 9 0 0
BITMAP
03A100
02A700
5FFFF7
5F7663
5F4310
5FFF50
5F4310
5F7663
5FFFF7
ENDCHAR
STARTCHAR Eacute
ENCODING 201
SWIDTH 578 0
DWIDTH 6 0
BBX 6 10 0 0
BITMAP
000860
003C30
000000
5FFFF7
5F7663
5F4310
5FFF50
5F4310
5F7663
5FFFF7
ENDCHAR
STARTCHAR Ecircumflex
ENCODING 202
SWIDTH 578 0
DWIDTH 6 0
BBX 6 9 0 0
BITMAP
007800
01AA20
5FFFF7
5F7663
5F4310
5FFF50
5F4310
5F7663
5FFFF7
ENDCHAR
STARTCHAR Edieresis
ENCODING 203
SWIDTH 578 0
DWIDTH 6 0
BBX 6 9 0 0
BITMAP
025430
047640
5FFFF7
5F7663
5F4310
5FFF50
5F4310
5F7663
5FFFF7
ENDCHAR
STARTCHAR Igrave
ENCODING 204
SWIDTH 270 0
DWIDTH 3 0
BBX 4 9 -1 0
BITMAP
1B20
19A0
05F1
05F1
05F1
05F1
05F1
05F1
05F1
ENDCHAR
STARTCHAR Iacute
ENCODING 205
SWIDTH 270 0
DWIDTH 3 0
BBX 3 10 0 0
BITMAP
0590
1D60
0000
5F10
5F10
5F10
5F10
5F10
5F10
5F10
ENDCHAR
STARTCHAR Icircumflex
ENCODING 206
SWIDTH 270 0
DWIDTH 3 0
BBX 3 9 0 0
BITMAP
3A10
9860
5F10
5F10
5F10
5F10
5F10
5F10
5F10
ENDCHAR
STARTCHAR Idieresis
ENCODING 207
SWIDTH 270 0
DWIDTH 3 0
BBX 4 9 -1 0
BITMAP
0725
1938
05F1
05F1
05F1
05F1
05F1
05F1
05F1
ENDCHAR
STARTCHAR Eth
ENCODING 208
SWIDTH 672 0
DWIDTH 7 0
BBX 7 7 0 0
BITMAP
2FFE9100
2F88EC00
5F604F40
EFF10F60
4F504F40
2F88EC00
2FFE9100
ENDCHAR
STARTCHAR Ntilde
ENCODING 209
SWIDTH 689 0
DWIDTH 7 0
BBX 7 9 0 0
BITMAP
01B9C000
01A79000
5F702F40
5FE12F40
5FD92F40
5F5F5F40
5F1BDF40
5F12FF40
5F108F40
ENDCHAR
STARTCHAR Ograve
ENCODING 210
SWIDTH 777 0
DWIDTH 8 0
BBX 8 11 0 -1
BITMAP
00670000
004D3000
00010000
03CFFA10
2EC67EC0
8E1003F5
BB0000E7
9D1003F5
2EC56DD0
04DFFB20
00021000
ENDCHAR
STARTCHAR Oacute
ENCODING 211
SWIDTH 777 0
DWIDTH 8 0
BBX 8 11 0 -1
BITMAP
0000A400
0006B200
00010000
03CFFA10
2EC67EC0
8E1003F5
BB0000E7
9D1003F5
2EC56DD0
04DFFB20
00021000
ENDCHAR
STARTCHAR Ocircumflex
ENCODING 212
SWIDTH 777 0
DWIDTH 8 0
BBX 8 10 0 -1
BITMAP
00096000
003AB100
03CFFA10
2EC67EC0
8E1003F5
BB0000E7
9D1003F5
2EC56DD0
04DFFB20
00021000
ENDCHAR
STARTCHAR Otilde
ENCODING 213
SWIDTH 777 0
DWIDTH 8 0
BBX 8 10 0 -1
BITMAP
007C9600
0087B300
03CFFA10
2EC67EC0
8E1003F5
BB0000E7
9D1003F5
2EC56DD0
04DFFB20
00021000
ENDCHAR
STARTCHAR Odieresis
ENCODING 214
SWIDTH 777 0
DWIDTH 8 0
BBX 8 10 0 -1
BITMAP
00445200
00568300
03CFFA10
2EC67EC0
8E1003F5
BB0000E7
9D1003F5
2EC56DD0
04DFFB20
00021000
ENDCHAR
STARTCHAR multiply
ENCODING 215
SWIDTH 479 0
DWIDTH 5 0
BBX 5 5 0 1
BITMAP
030400
4FBF20
0CF900
4FAE10
020200
ENDCHAR
STARTCHAR Oslash
ENCODING 216
SWIDTH 777 0
DWIDTH 8 0
BBX 8 9 0 -1
BITMAP
00010000
03CFFDB0
2EC6AFC0
8E12E7F5
BB0B80E7
9D8C03F5
2EF76DD0
1DDFFB20
00021000
ENDCHAR
STARTCHAR Ugrave
ENCODING 217
SWIDTH 673 0
DWIDTH 7 0
BBX 7 9 0 0
BITMAP
01B20000
018B0000
6F004F30
6F004F30
6F004F30
6F004F30
5F105F20
1EB7DC00
04CEB200
ENDCHAR
STARTCHAR Uacute
ENCODING 218
SWIDTH 673 0
DWIDTH 7 0
BBX 7 10 0 0
BITMAP
0004A000
000C6000
00000000
6F004F30
6F004F30
6F004F30
6F004F30
5F105F20
1EB7DC00
04CEB200
ENDCHAR
STARTCHAR Ucircumflex
ENCODING 219
SWIDTH 673 0
DWIDTH 7 0
BBX 7 9 0 0
BITMAP
003B1000
00987000
6F004F30
6F004F30
6F004F30
6F004F30
5F105F20
1EB7DC00
04CEB200
ENDCHAR
STARTCHAR Udieresis
ENCODING 220
SWIDTH 673 0
DWIDTH 7 0
BBX 7 9 0 0
BITMAP
00725000
01938000
6F004F30
6F004F30
6F004F30
6F004F30
5F105F20
1EB7DC00
04CEB200
ENDCHAR
STARTCHAR Yacute
ENCODING 221
SWIDTH 620 0
DWIDTH 6 0
BBX 6 9 0 0
BITMAP
000860
003D40
BB008E
BB008E
AC009D
4FA9F7
05DE70
009C00
009C00
ENDCHAR
STARTCHAR Thorn
ENCODING 222
SWIDTH 637 0
DWIDTH 6 0
BBX 7 9 0 -1
BITMAP
24000000
5F541000
5FFFE500
5F22AE10
5F103F30
5F22AE10
5FFFE500
5F541000
24000000
ENDCHAR
STARTCHAR germandbls
ENCODING 223
SWIDTH 813 0
DWIDTH 8 0
BBX 8 8 0 0
BITMAP
02ACC700
0DC88F50
4F303E60
CF3CFC10
3F4F8330
2F3AFFFB
2F3467AF
2F3BFFF7
ENDCHAR
STARTCHAR agrave
ENCODING 224
SWIDTH 607 0
DWIDTH 6 0
BBX 6 8 0 0
BITMAP
068000
03C300
015501
2EFFC9
9C13E9
B900C9
8E57F9
1AFE88
ENDCHAR
STARTCHAR aacute
ENCODING 225
SWIDTH 607 0
DWIDTH 6 0
BBX 6 8 0 0
BITMAP
001A30
007B20
015501
2EFFC9
9C13E9
B900C9
8E57F9
1AFE88
ENDCHAR
STARTCHAR acircumflex
ENCODING 226
SWIDTH 607 0
DWIDTH 6 0
BBX 6 8 0 0
BITMAP
009600
039B10
015501
2EFFC9
9C13E9
B900C9
8E57F9
1AFE88
ENDCHAR
STARTCHAR atilde
ENCODING 227
SWIDTH 607 0
DWIDTH 6 0
BBX 6 8 0 0
BITMAP
06C960
086A30
015501
2EFFC9
9C13E9
B900C9
8E57F9
1AFE88
ENDCHAR
STARTCHAR adieresis
ENCODING 228
SWIDTH 607 0
DWIDTH 6 0
BBX 6 7 0 0
BITMAP
034520
06BC31
2EFFC9
9C13E9
B900C9
8E57F9
1AFE88
ENDCHAR
STARTCHAR aring
ENCODING 229
SWIDTH 607 0
DWIDTH 6 0
BBX 6 8 0 0
BITMAP
00B900
00A700
015501
2EFFC9
9C13E9
B900C9
8E57F9
1AFE88
ENDCHAR
STARTCHAR ae
ENCODING 230
SWIDTH 976 0
DWIDTH 10 0
BBX 10 7 0 -1
BITMAP
0155013630
2EFFCEFEF5
9C13EF69D1
B900CF7E20
8E57FFF8B3
1AFE8BDFD3
0000000100
ENDCHAR
STARTCHAR ccedilla
ENCODING 231
SWIDTH 521 0
DWIDTH 5 0
BBX 5 9 0 -3
BITMAP
015500
2DFFC0
9D1260
B90000
8E5790
1AFF80
00A500
03C900
003100
ENDCHAR
STARTCHAR egrave
ENCODING 232
SWIDTH 524 0
DWIDTH 5 0
BBX 5 8 0 0
BITMAP
076000
04D200
015500
2EFFC0
9C3E60
BAD900
7FD790
0AFF80
ENDCHAR
STARTCHAR eacute
ENCODING 233
SWIDTH 524 0
DWIDTH 5 0
BBX 5 8 0 0
BITMAP
001A30
007A20
015500
2EFFC0
9C3E60
BAD900
7FD790
0AFF80
ENDCHAR
STARTCHAR ecircumflex
ENCODING 234
SWIDTH 524 0
DWIDTH 5 0
BBX 5 8 0 0
BITMAP
01B300
068A00
015500
2EFFC0
9C3E60
BAD900
7FD790
0AFF80
ENDCHAR
STARTCHAR edieresis
ENCODING 235
SWIDTH 524 0
DWIDTH 5 0
BBX 5 8 0 0
BITMAP
052600
083910
015500
2EFFC0
9C3E60
BAD900
7FD790
0AFF80
ENDCHAR
STARTCHAR igrave
ENCODING 236
SWIDTH 235 0
DWIDTH 2 0
BBX 3 8 -1 0
BITMAP
2B10
2A70
0230
07D0
07D0
07D0
07D0
07D0
ENDCHAR
STARTCHAR iacute
ENCODING 237
SWIDTH 235 0
DWIDTH 2 0
BBX 3 8 0 0
BITMAP
0770
2D40
2300
7D00
7D00
7D00
7D00
7D00
ENDCHAR
STARTCHAR icircumflex
ENCODING 238
SWIDTH 235 0
DWIDTH 2 0
BBX 3 8 0 0
BITMAP
5900
A940
2300
7D00
7D00
7D00
7D00
7D00
ENDCHAR
STARTCHAR idieresis
ENCODING 239
SWIDTH 235 0
DWIDTH 2 0
BBX 4 7 -1 0
BITMAP
1634
2A76
07D0
07D0
07D0
07D0
07D0
ENDCHAR
STARTCHAR eth
ENCODING 240
SWIDTH 581 0
DWIDTH 6 0
BBX 6 8 0 0
BITMAP
007800
0BFFF6
026DC1
2DFFF2
9D12E7
B900D8
7E57F4
0AFE70
ENDCHAR
STARTCHAR ntilde
ENCODING 241
SWIDTH 562 0
DWIDTH 6 0
BBX 6 7 0 0
BITMAP
07C960
19AD20
7EFF80
7E26F1
7D02F3
7D02F3
7D02F3
ENDCHAR
STARTCHAR ograve
ENCODING 242
SWIDTH 579 0
DWIDTH 6 0
BBX 6 8 0 0
BITMAP
067000
04D300
015500
2EFFC0
9D12E6
B900D8
7E57F4
0AFE70
ENDCHAR
STARTCHAR oacute
ENCODING 243
SWIDTH 579 0
DWIDTH 6 0
BBX 6 8 0 0
BITMAP
001A30
007A20
015500
2EFFC0
9D12E6
B900D8
7E57F4
0AFE70
ENDCHAR
STARTCHAR ocircumflex
ENCODING 244
SWIDTH 579 0
DWIDTH 6 0
BBX 6 8 0 0
BITMAP
009600
039B10
015500
2EFFC0
9D12E6
B900D8
7E57F4
0AFE70
ENDCHAR
STARTCHAR otilde
ENCODING 245
SWIDTH 579 0
DWIDTH 6 0
BBX 6 8 0 0
BITMAP
07C960
086A30
015500
2EFFC0
9D12E6
B900D8
7E57F4
0AFE70
ENDCHAR
STARTCHAR odieresis
ENCODING 246
SWIDTH 579 0
DWIDTH 6 0
BBX 6 7 0 0
BITMAP
044520
06BC30
2EFFC0
9D12E6
B900D8
7E57F4
0AFE70
ENDCHAR
STARTCHAR divide
ENCODING 247
SWIDTH 494 0
DWIDTH 5 0
BBX 5 5 0 1
BITMAP
02E100
239320
9FFF80
139210
02C100
ENDCHAR
STARTCHAR oslash
ENCODING 248
SWIDTH 579 0
DWIDTH 6 0
BBX 6 7 0 -1
BITMAP
015542
2EFFF2
9D3EF6
BAC7D8
7FD7F4
6EFE70
001000
ENDCHAR
STARTCHAR ugrave
ENCODING 249
SWIDTH 562 0
DWIDTH 6 0
BBX 6 9 0 -1
BITMAP
086000
05D100
230140
8C03F2
8C03F2
8C03F2
6E5AF2
0AFEB2
001000
ENDCHAR
STARTCHAR uacute
ENCODING 250
SWIDTH 562 0
DWIDTH 6 0
BBX 6 9 0 -1
BITMAP
001B20
008A10
230140
8C03F2
8C03F2
8C03F2
6E5AF2
0AFEB2
001000
ENDCHAR
STARTCHAR ucircumflex
ENCODING 251
SWIDTH 562 0
DWIDTH 6 0
BBX 6 9 0 -1
BITMAP
00A400
049A00
230140
8C03F2
8C03F2
8C03F2
6E5AF2
0AFEB2
001000
ENDCHAR
STARTCHAR udieresis
ENCODING 252
SWIDTH 562 0
DWIDTH 6 0
BBX 6 8 0 -1
BITMAP
043610
294950
8C03F2
8C03F2
8C03F2
6E5AF2
0AFEB2
001000
ENDCHAR
STARTCHAR yacute
ENCODING 253
SWIDTH 562 0
DWIDTH 6 0
BBX 6 10 0 -2
BITMAP
001B20
008A10
230140
8C03F2
8C03F2
8C03F2
6E5AF2
0AFFF1
016CC0
04FB20
ENDCHAR
STARTCHAR thorn
ENCODING 254
SWIDTH 608 0
DWIDTH 6 0
BBX 6 10 0 -2
BITMAP
360000
7E0000
7E4510
7FFFE3
7F31BA
7E008C
7F85E9
7EEFB1
7D0100
7D0000
ENDCHAR
STARTCHAR ydieresis
ENCODING 255
SWIDTH 562 0
DWIDTH 6 0
BBX 6 9 0 -2
BITMAP
043610
294950
8C03F2
8C03F2
8C03F2
6E5AF2
0AFFF1
016CC0
04FB20
ENDCHAR
STARTCHAR Amacron
ENCODING 256
SWIDTH 673 0
DWIDTH 7 0
BBX 7 9 0 0
BITMAP
00563000
008A6000
04CEA200
1EB7DC00
5F105F20
6F004F30
6FCCDF30
6F99AF30
6F004F30
ENDCHAR
STARTCHAR amacron
ENCODING 257
SWIDTH 607 0
DWIDTH 6 0
BBX 6 8 0 0
BITMAP
026600
04AA10
015501
2EFFC9
9C13E9
B900C9
8E57F9
1AFE88
ENDCHAR
STARTCHAR Abreve
ENCODING 258
SWIDTH 673 0
DWIDTH 7 0
BBX 7 9 0 0
BITMAP
00984000
00491000
04CEA200
1EB7DC00
5F105F20
6F004F30
6FCCDF30
6F99AF30
6F004F30
ENDCHAR
STARTCHAR abreve
ENCODING 259
SWIDTH 607 0
DWIDTH 6 0
BBX 6 7 0 0
BITMAP
039A00
02DA01
2EFFC9
9C13E9
B900C9
8E57F9
1AFE88
ENDCHAR
STARTCHAR Aogonek
ENCODING 260
SWIDTH 673 0
DWIDTH 7 0
BBX 7 9 0 -2
BITMAP
04CEA200
1EB7DC00
5F105F20
6F004F30
6FCCDF30
6F99AF30
6F004F30
00006910
00004B30
ENDCHAR
STARTCHAR aogonek
ENCODING 261
SWIDTH 607 0
DWIDTH 6 0
BBX 7 8 0 -2
BITMAP
01550100
2EFFC900
9C13E900
B900C900
8E57F900
1AFE8900
00009700
00006B20
ENDCHAR
STARTCHAR Cacute
ENCODING 262
SWIDTH 640 0
DWIDTH 6 0
BBX 7 11 0 -1
BITMAP
0001B100
00099100
00010000
03CFFA10
2EC67A00
8E100000
BB000000
9D100000
2EC56A00
04DFFB10
00021000
ENDCHAR
STARTCHAR cacute
ENCODING 263
SWIDTH 521 0
DWIDTH 5 0
BBX 5 8 0 0
BITMAP
001B20
008A10
015500
2DFFC0
9D1260
B90000
8E5790
1AFF80
ENDCHAR
STARTCHAR Ccircumflex
ENCODING 264
SWIDTH 640 0
DWIDTH 6 0
BBX 7 10 0 -1
BITMAP
001A3000
0069A000
03CFFA10
2EC67A00
8E100000
BB000000
9D100000
2EC56A00
04DFFB10
00021000
ENDCHAR
STARTCHAR ccircumflex
ENCODING 265
SWIDTH 521 0
DWIDTH 5 0
BBX 5 8 0 0
BITMAP
009500
039B10
015500
2DFFC0
9D1260
B90000
8E5790
1AFF80
ENDCHAR
STARTCHAR Cdotaccent
ENCODING 266
SWIDTH 640 0
DWIDTH 6 0
BBX 7 10 0 -1
BITMAP
00063000
00073000
03CFFA10
2EC67A00
8E100000
BB000000
9D100000
2EC56A00
04DFFB10
00021000
ENDCHAR
STARTCHAR cdotaccent
ENCODING 267
SWIDTH 521 0
DWIDTH 5 0
BBX 5 8 0 0
BITMAP
005300
006400
015500
2DFFC0
9D1260
B90000
8E5790
1AFF80
ENDCHAR
STARTCHAR Ccaron
ENCODING 268
SWIDTH 640 0
DWIDTH 6 0
BBX 7 10 0 -1
BITMAP
004AB000
00094000
03CFFA10
2EC67A00
8E100000
BB000000
9D100000
2EC56A00
04DFFB10
00021000
ENDCHAR
STARTCHAR ccaron
ENCODING 269
SWIDTH 521 0
DWIDTH 5 0
BBX 5 8 0 0
BITMAP
03BB10
007500
015500
2DFFC0
9D1260
B90000
8E5790
1AFF80
ENDCHAR
STARTCHAR Dcaron
ENCODING 270
SWIDTH 653 0
DWIDTH 7 0
BBX 7 9 0 0
BITMAP
00B95000
00390000
5FFD7000
5F79F900
5F107F10
5F103F30
5F107F10
5F79F900
5FFD8000
ENDCHAR
STARTCHAR dcaron
ENCODING 271
SWIDTH 740 0
DWIDTH 7 0
BBX 8 8 0 0
BITMAP
00004300
0000C8C4
0155C883
2EFFF800
9C13F800
B900D800
7E57F800
0AFE8800
ENDCHAR
STARTCHAR Dcroat
ENCODING 272
SWIDTH 672 0
DWIDTH 7 0
BBX 7 7 0 0
BITMAP
2FFE9100
2F88EC00
5F604F40
EFF10F60
4F504F40
2F88EC00
2FFE9100
ENDCHAR
STARTCHAR dcroat
ENCODING 273
SWIDTH 606 0
DWIDTH 6 0
BBX 7 8 0 0
BITMAP
00004300
0005FF10
0156DB00
2EFFF800
9C13F800
B900D800
7E57F800
0AFE8800
ENDCHAR
STARTCHAR Emacron
ENCODING 274
SWIDTH 578 0
DWIDTH 6 0
BBX 6 9 0 0
BITMAP
006620
00AA40
5FFFF7
5F7663
5F4310
5FFF50
5F4310
5F7663
5FFFF7
ENDCHAR
STARTCHAR emacron
ENCODING 275
SWIDTH 524 0
DWIDTH 5 0
BBX 5 8 0 0
BITMAP
026600
04AA10
015500
2EFFC0
9C3E60
BAD900
7FD790
0AFF80
ENDCHAR
STARTCHAR Ebreve
ENCODING 276
SWIDTH 578 0
DWIDTH 6 0
BBX 6 9 0 0
BITMAP
00AA10
007700
5FFFF7
5F7663
5F4310
5FFF50
5F4310
5F7663
5FFFF7
ENDCHAR
STARTCHAR ebreve
ENCODING 277
SWIDTH 524 0
DWIDTH 5 0
BBX 5 7 0 0
BITMAP
048900
02EA00
2EFFC0
9C3E60
BAD900
7FD790
0AFF80
ENDCHAR
STARTCHAR Edotaccent
ENCODING 278
SWIDTH 578 0
DWIDTH 6 0
BBX 6 9 0 0
BITMAP
003500
004600
5FFFF7
5F7663
5F4310
5FFF50
5F4310
5F7663
5FFFF7
ENDCHAR
STARTCHAR edotaccent
ENCODING 279
SWIDTH 524 0
DWIDTH 5 0
BBX 5 8 0 0
BITMAP
006300
006300
015500
2EFFC0
9C3E60
BAD900
7FD790
0AFF80
ENDCHAR
STARTCHAR Eogonek
ENCODING 280
SWIDTH 578 0
DWIDTH 6 0
BBX 6 9 0 -2
BITMAP
5FFFF7
5F7663
5F4310
5FFF50
5F4310
5F7663
5FFFF7
000880
0005B2
ENDCHAR
STARTCHAR eogonek
ENCODING 281
SWIDTH 524 0
DWIDTH 5 0
BBX 5 8 0 -2
BITMAP
015500
2EFFC0
9C3E60
BAD900
7FD790
0AFF80
003B20
002B60
ENDCHAR
STARTCHAR Ecaron
ENCODING 282
SWIDTH 578 0
DWIDTH 6 0
BBX 6 9 0 0
BITMAP
01CB30
005700
5FFFF7
5F7663
5F4310
5FFF50
5F4310
5F7663
5FFFF7
ENDCHAR
STARTCHAR ecaron
ENCODING 283
SWIDTH 524 0
DWIDTH 5 0
BBX 5 8 0 0
BITMAP
04AB00
008400
015500
2EFFC0
9C3E60
BAD900
7FD790
0AFF80
ENDCHAR
STARTCHAR Gcircumflex
ENCODING 284
SWIDTH 665 0
DWIDTH 7 0
BBX 7 10 0 -1
BITMAP
001A4000
0059A000
03CFEA10
2EC67B00
8E100000
BB001720
9D102F30
2EB56F30
04DFFB10
00021000
ENDCHAR
STARTCHAR gcircumflex
ENCODING 285
SWIDTH 607 0
DWIDTH 6 0
BBX 6 10 0 -2
BITMAP
009500
039B10
015501
2EFFC9
9C13E9
B900C9
8E57F9
1AFFF8
0048F4
00BD60
ENDCHAR
STARTCHAR Gbreve
ENCODING 286
SWIDTH 665 0
DWIDTH 7 0
BBX 7 10 0 -1
BITMAP
0048A000
00195000
03CFEA10
2EC67B00
8E100000
BB001720
9D102F30
2EB56F30
04DFFB10
00021000
ENDCHAR
STARTCHAR gbreve
ENCODING 287
SWIDTH 607 0
DWIDTH 6 0
BBX 6 9 0 -2
BITMAP
029A00
01DA01
2EFFC9
9C13E9
B900C9
8E57F9
1AFFF8
0048F4
00BD60
ENDCHAR
STARTCHAR Gdotaccent
ENCODING 288
SWIDTH 665 0
DWIDTH 7 0
BBX 7 10 0 -1
BITMAP
00072000
00082000
03CFEA10
2EC67B00
8E100000
BB001720
9D102F30
2EB56F30
04DFFB10
00021000
ENDCHAR
STARTCHAR gdotaccent
ENCODING 289
SWIDTH 607 0
DWIDTH 6 0
BBX 6 9 0 -2
BITMAP
006300
01B801
2EFFC9
9C13E9
B900C9
8E57F9
1AFFF8
0048F4
00BD60
ENDCHAR
STARTCHAR Gcommaaccent
ENCODING 290
SWIDTH 665 0
DWIDTH 7 0
BBX 7 10 0 -3
BITMAP
03CFEA10
2EC67B00
8E100000
BB001720
9D102F30
2EB56F30
04DFFB10
00072000
000B5000
00041000
ENDCHAR
STARTCHAR gcommaaccent
ENCODING 291
SWIDTH 607 0
DWIDTH 6 0
BBX 6 11 0 -2
BITMAP
002000
00B400
007400
015501
2EFFC9
9C13E9
B900C9
8E57F9
1AFFF8
0048F4
00BD60
ENDCHAR
STARTCHAR Hcircumflex
ENCODING 292
SWIDTH 689 0
DWIDTH 7 0
BBX 7 9 0 0
BITMAP
002B1000
00978000
5F102F40
5F102F40
5F435F40
5FFFFF40
5F435F40
5F102F40
5F102F40
ENDCHAR
STARTCHAR hcircumflex
ENCODING 293
SWIDTH 562 0
DWIDTH 6 0
BBX 6 8 0 0
BITMAP
243B10
7D9870
7D4300
7FFF80
7E26F1
7D02F3
7D02F3
7D02F3
ENDCHAR
STARTCHAR Hbar
ENCODING 294
SWIDTH 689 0
DWIDTH 7 0
BBX 7 7 0 0
BITMAP
6F324F50
DFFFFFB0
7F667F50
5FFFFF40
5F435F40
5F102F40
5F102F40
ENDCHAR
STARTCHAR hbar
ENCODING 295
SWIDTH 562 0
DWIDTH 6 0
BBX 6 8 0 0
BITMAP
240000
FF5000
9D5300
7FFF80
7E26F1
7D02F3
7D02F3
7D02F3
ENDCHAR
STARTCHAR Itilde
ENCODING 296
SWIDTH 270 0
DWIDTH 3 0
BBX 4 9 -1 0
BITMAP
1C8C
2988
05F1
05F1
05F1
05F1
05F1
05F1
05F1
ENDCHAR
STARTCHAR itilde
ENCODING 297
SWIDTH 235 0
DWIDTH 2 0
BBX 4 7 -1 0
BITMAP
3C8A
4AC6
07D0
07D0
07D0
07D0
07D0
ENDCHAR
STARTCHAR Imacron
ENCODING 298
SWIDTH 270 0
DWIDTH 3 0
BBX 3 9 0 0
BITMAP
5630
9A60
5F10
5F10
5F10
5F10
5F10
5F10
5F10
ENDCHAR
STARTCHAR imacron
ENCODING 299
SWIDTH 235 0
DWIDTH 2 0
BBX 3 7 0 0
BITMAP
6620
BD40
7D00
7D00
7D00
7D00
7D00
ENDCHAR
STARTCHAR Ibreve
ENCODING 300
SWIDTH 270 0
DWIDTH 3 0
BBX 3 9 0 0
BITMAP
8850
3920
5F10
5F10
5F10
5F10
5F10
5F10
5F10
ENDCHAR
STARTCHAR ibreve
ENCODING 301
SWIDTH 235 0
DWIDTH 2 0
BBX 3 7 0 0
BITMAP
A930
7B10
7D00
7D00
7D00
7D00
7D00
ENDCHAR
STARTCHAR Iogonek
ENCODING 302
SWIDTH 270 0
DWIDTH 3 0
BBX 3 9 0 -2
BITMAP
5F10
5F10
5F10
5F10
5F10
5F10
5F10
8800
5B20
ENDCHAR
STARTCHAR iogonek
ENCODING 303
SWIDTH 235 0
DWIDTH 2 0
BBX 3 10 0 -2
BITMAP
3600
AF00
2500
7D00
7D00
7D00
7D00
7D00
9600
6A10
ENDCHAR
STARTCHAR Idotaccent
ENCODING 304
SWIDTH 270 0
DWIDTH 3 0
BBX 3 9 0 0
BITMAP
1700
2800
5F10
5F10
5F10
5F10
5F10
5F10
5F10
ENDCHAR
STARTCHAR dotlessi
ENCODING 305
SWIDTH 235 0
DWIDTH 2 0
BBX 2 6 0 0
BITMAP
23
7D
7D
7D
7D
7D
ENDCHAR
STARTCHAR IJ
ENCODING 306
SWIDTH 687 0
DWIDTH 7 0
BBX 7 7 0 0
BITMAP
5F101F40
5F101F40
5F101F40
5F101F40
5F103F30
5F27CD10
5F3EB300
ENDCHAR
STARTCHAR ij
ENCODING 307
SWIDTH 474 0
DWIDTH 5 0
BBX 5 10 0 -2
BITMAP
361710
AF4F60
250610
7D2F40
7D2F40
7D2F40
7D2F40
7D3F30
15BD00
2FC300
ENDCHAR
STARTCHAR Jcircumflex
ENCODING 308
SWIDTH 416 0
DWIDTH 4 0
BBX 5 9 0 0
BITMAP
009500
039B10
00C900
00C900
00C900
00C900
00D800
6AF300
DD5000
ENDCHAR
STARTCHAR jcircumflex
ENCODING 309
SWIDTH 237 0
DWIDTH 2 0
BBX 5 10 -2 -2
BITMAP
005900
00A940
002300
007D00
007D00
007D00
007D00
008D00
26E800
7E9100
ENDCHAR
STARTCHAR Kcommaaccent
ENCODING 310
SWIDTH 625 0
DWIDTH 6 0
BBX 7 10 0 -3
BITMAP
5F10BC10
5F17E200
5F4F6000
5FEF5000
5FDBD000
5F33F600
5F109E10
00340000
005B0000
00130000
ENDCHAR
STARTCHAR kcommaaccent
ENCODING 311
SWIDTH 539 0
DWIDTH 5 0
BBX 6 11 0 -3
BITMAP
240000
7D0000
7D0131
7D0BC0
7D8E10
7FFE10
7F8E80
7D07F2
006100
00C500
004000
ENDCHAR
STARTCHAR kgreenlandic
ENCODING 312
SWIDTH 539 0
DWIDTH 5 0
BBX 6 6 0 0
BITMAP
230131
7D0BC0
7D8E10
7FFE10
7F8E80
7D07F2
ENDCHAR
STARTCHAR Lacute
ENCODING 313
SWIDTH 562 0
DWIDTH 6 0
BBX 6 9 0 0
BITMAP
002B10
00A810
5F1000
5F1000
5F1000
5F1000
5F1000
5F7663
5FFFF8
ENDCHAR
STARTCHAR lacute
ENCODING 314
SWIDTH 235 0
DWIDTH 2 0
BBX 3 10 0 0
BITMAP
03A0
0C70
2400
7D00
7D00
7D00
7D00
7D00
7D00
7D00
ENDCHAR
STARTCHAR Lcommaaccent
ENCODING 315
SWIDTH 562 0
DWIDTH 6 0
BBX 6 10 0 -3
BITMAP
5F1000
5F1000
5F1000
5F1000
5F1000
5F7663
5FFFF8
005200
00A600
003100
ENDCHAR
STARTCHAR lcommaaccent
ENCODING 316
SWIDTH 235 0
DWIDTH 2 0
BBX 2 11 0 -3
BITMAP
24
7D
7D
7D
7D
7D
7D
7D
25
4C
14
ENDCHAR
STARTCHAR Lcaron
ENCODING 317
SWIDTH 562 0
DWIDTH 6 0
BBX 6 7 0 0
BITMAP
5F4D00
5F1A00
5F1000
5F1000
5F1000
5F7663
5FFFF8
ENDCHAR
STARTCHAR lcaron
ENCODING 318
SWIDTH 369 0
DWIDTH 4 0
BBX 4 8 0 0
BITMAP
2400
7D89
7D47
7D00
7D00
7D00
7D00
7D00
ENDCHAR
STARTCHAR Ldot
ENCODING 319
SWIDTH 745 0
DWIDTH 7 0
BBX 7 7 0 0
BITMAP
5F100000
5F100000
5F100130
5F1009E0
5F100230
5F766300
5FFFF800
ENDCHAR
STARTCHAR ldotaccent
ENCODING 320
SWIDTH 463 0
DWIDTH 5 0
BBX 5 8 0 0
BITMAP
240000
7D0000
7D0000
7D1400
7D7F10
7D1400
7D0000
7D0000
ENDCHAR
STARTCHAR Lslash
ENCODING 321
SWIDTH 585 0
DWIDTH 6 0
BBX 6 7 0 0
BITMAP
2F4000
2F4000
2FD100
9FA000
AF4000
2F9665
2FFFFC
ENDCHAR
STARTCHAR lslash
ENCODING 322
SWIDTH 319 0
DWIDTH 3 0
BBX 4 8 0 0
BITMAP
0510
1F40
1F40
1FC1
9FA0
AF40
1F40
1F40
ENDCHAR
STARTCHAR Nacute
ENCODING 323
SWIDTH 689 0
DWIDTH 7 0
BBX 7 9 0 0
BITMAP
0004A000
000C6000
5F702F40
5FE12F40
5FD92F40
5F5F5F40
5F1BDF40
5F12FF40
5F108F40
ENDCHAR
STARTCHAR nacute
ENCODING 324
SWIDTH 562 0
DWIDTH 6 0
BBX 6 8 0 0
BITMAP
000950
004C30
104300
7EFF80
7E26F1
7D02F3
7D02F3
7D02F3
ENDCHAR
STARTCHAR Ncommaaccent
ENCODING 325
SWIDTH 689 0
DWIDTH 7 0
BBX 7 10 0 -3
BITMAP
5F702F40
5FE12F40
5FD92F40
5F5F5F40
5F1BDF40
5F12FF40
5F108F40
00160000
001E1000
00040000
ENDCHAR
STARTCHAR ncommaaccent
ENCODING 326
SWIDTH 562 0
DWIDTH 6 0
BBX 6 9 0 -3
BITMAP
104300
7EFF80
7E26F1
7D02F3
7D02F3
7D02F3
005200
00A600
003100
ENDCHAR
STARTCHAR Ncaron
ENCODING 327
SWIDTH 689 0
DWIDTH 7 0
BBX 7 9 0 0
BITMAP
00998000
002A1000
5F702F40
5FE12F40
5FD92F40
5F5F5F40
5F1BDF40
5F12FF40
5F108F40
ENDCHAR
STARTCHAR ncaron
ENCODING 328
SWIDTH 562 0
DWIDTH 6 0
BBX 6 8 0 0
BITMAP
04AB00
008400
104300
7EFF80
7E26F1
7D02F3
7D02F3
7D02F3
ENDCHAR
STARTCHAR napostrophe
ENCODING 329
SWIDTH 694 0
DWIDTH 7 0
BBX 7 7 0 0
BITMAP
D3000000
93134000
02EFFC10
02F62E60
02F30C80
02F30C80
02F30C80
ENDCHAR
STARTCHAR Eng
ENCODING 330
SWIDTH 689 0
DWIDTH 7 0
BBX 7 9 0 -2
BITMAP
5F702F40
5FE12F40
5FD92F40
5F5F5F40
5F1BDF40
5F12FF40
5F108F30
0027DD00
003FB200
ENDCHAR
STARTCHAR eng
ENCODING 331
SWIDTH 562 0
DWIDTH 6 0
BBX 6 8 0 -2
BITMAP
104300
7EFF80
7E26F1
7D02F3
7D02F3
7D03F2
015CD0
03FB20
ENDCHAR
STARTCHAR Omacron
ENCODING 332
SWIDTH 777 0
DWIDTH 8 0
BBX 8 10 0 -1
BITMAP
00266100
003AA100
03CFFA10
2EC67EC0
8E1003F5
BB0000E7
9D1003F5
2EC56DD0
04DFFB20
00021000
ENDCHAR
STARTCHAR omacron
ENCODING 333
SWIDTH 579 0
DWIDTH 6 0
BBX 6 8 0 0
BITMAP
026610
03AA10
015500
2EFFC0
9D12E6
B900D8
7E57F4
0AFE70
ENDCHAR
STARTCHAR Obreve
ENCODING 334
SWIDTH 777 0
DWIDTH 8 0
BBX 8 10 0 -1
BITMAP
002AA000
00087000
03CFFA10
2EC67EC0
8E1003F5
BB0000E7
9D1003F5
2EC56DD0
04DFFB20
00021000
ENDCHAR
STARTCHAR obreve
ENCODING 335
SWIDTH 579 0
DWIDTH 6 0
BBX 6 7 0 0
BITMAP
02AA00
01DB00
2EFFC0
9D12E6
B900D8
7E57F4
0AFE70
ENDCHAR
STARTCHAR Ohungarumlaut
ENCODING 336
SWIDTH 777 0
DWIDTH 8 0
BBX 8 11 0 -1
BITMAP
00030100
002E9E10
00369500
03CFFA10
2EC67EC0
8E1003F5
BB0000E7
9D1003F5
2EC56DD0
04DFFB20
00021000
ENDCHAR
STARTCHAR ohungarumlaut
ENCODING 337
SWIDTH 579 0
DWIDTH 6 0
BBX 6 8 0 0
BITMAP
003010
02E9E1
04BD50
2EFFC0
9D12E6
B900D8
7E57F4
0AFE70
ENDCHAR
STARTCHAR OE
ENCODING 338
SWIDTH 1125 0
DWIDTH 11 0
BBX 11 9 0 -1
BITMAP
000100000000
03CFFAEFFFE0
2EC67EFB6660
8E1003F93300
BB0000EFFC00
9D1003F93300
2EC56DFB6660
04DFFBEFFFE0
000210000000
ENDCHAR
STARTCHAR oe
ENCODING 339
SWIDTH 924 0
DWIDTH 9 0
BBX 9 6 0 0
BITMAP
0155015500
2EFFCEFFC0
9D12EC3E60
B900DAD900
7E57FFD790
0AFE7AFF80
ENDCHAR
STARTCHAR Racute
ENCODING 340
SWIDTH 651 0
DWIDTH 7 0
BBX 7 9 0 0
BITMAP
00077000
002D4000
5FFFB200
5F77DD00
5F104F30
5F106F20
5FCCF900
5F9BF200
5F11E800
ENDCHAR
STARTCHAR racute
ENCODING 341
SWIDTH 414 0
DWIDTH 4 0
BBX 4 8 0 0
BITMAP
0077
02D4
1023
7CFF
7F42
7D00
7D00
7D00
ENDCHAR
STARTCHAR Rcommaaccent
ENCODING 342
SWIDTH 651 0
DWIDTH 7 0
BBX 7 10 0 -3
BITMAP
5FFFB200
5F77DD00
5F104F30
5F106F20
5FCCF900
5F9BF200
5F11E800
00250000
003D0000
00040000
ENDCHAR
STARTCHAR rcommaaccent
ENCODING 343
SWIDTH 414 0
DWIDTH 4 0
BBX 4 9 0 -3
BITMAP
1023
7CFF
7F42
7D00
7D00
7D00
2500
5C00
1400
ENDCHAR
STARTCHAR Rcaron
ENCODING 344
SWIDTH 651 0
DWIDTH 7 0
BBX 7 9 0 0
BITMAP
00B95000
00390000
5FFFB200
5F77DD00
5F104F30
5F106F20
5FCCF900
5F9BF200
5F11E800
ENDCHAR
STARTCHAR rcaron
ENCODING 345
SWIDTH 414 0
DWIDTH 4 0
BBX 4 8 0 0
BITMAP
1BB3
0570
1023
7CFF
7F42
7D00
7D00
7D00
ENDCHAR
STARTCHAR Sacute
ENCODING 346
SWIDTH 610 0
DWIDTH 6 0
BBX 6 10 0 0
BITMAP
000770
002D40
000000
2BFFF8
9D6663
AC3310
3EFFE4
0133BB
2666DA
6FFFC2
ENDCHAR
STARTCHAR sacute
ENCODING 347
SWIDTH 523 0
DWIDTH 5 0
BBX 5 8 0 0
BITMAP
001B20
008A10
023320
5FFFA0
9D5410
4EFFB0
357AF0
AFFE70
ENDCHAR
STARTCHAR Scircumflex
ENCODING 348
SWIDTH 610 0
DWIDTH 6 0
BBX 6 9 0 0
BITMAP
007800
01AA20
2BFFF8
9D6663
AC3310
3EFFE4
0133BB
2666DA
6FFFC2
ENDCHAR
STARTCHAR scircumflex
ENCODING 349
SWIDTH 523 0
DWIDTH 5 0
BBX 5 8 0 0
BITMAP
01B300
078900
023320
5FFFA0
9D5410
4EFFB0
357AF0
AFFE70
ENDCHAR
STARTCHAR Scedilla
ENCODING 350
SWIDTH 610 0
DWIDTH 6 0
BBX 6 10 0 -3
BITMAP
2BFFF8
9D6663
AC3310
3EFFE4
0133BB
2666DA
6FFFC2
004A00
009E10
002200
ENDCHAR
STARTCHAR scedilla
ENCODING 351
SWIDTH 523 0
DWIDTH 5 0
BBX 5 9 0 -3
BITMAP
023320
5FFFA0
9D5410
4EFFB0
357AF0
AFFE70
00A400
04C900
003000
ENDCHAR
STARTCHAR Scaron
ENCODING 352
SWIDTH 610 0
DWIDTH 6 0
BBX 6 9 0 0
BITMAP
01BB20
005700
2BFFF8
9D6663
AC3310
3EFFE4
0133BB
2666DA
6FFFC2
ENDCHAR
STARTCHAR scaron
ENCODING 353
SWIDTH 523 0
DWIDTH 5 0
BBX 5 8 0 0
BITMAP
059B00
009300
023320
5FFFA0
9D5410
4EFFB0
357AF0
AFFE70
ENDCHAR
STARTCHAR Tcommaaccent
ENCODING 354
SWIDTH 578 0
DWIDTH 6 0
BBX 6 10 0 -3
BITMAP
EFFFFA
66DB64
00C900
00C900
00C900
00C900
00C900
004300
008800
003200
ENDCHAR
STARTCHAR tcommaaccent
ENCODING 355
SWIDTH 437 0
DWIDTH 4 0
BBX 5 11 0 -3
BITMAP
151000
3F2000
5F5300
DFFF20
4F3200
3F2000
1E9510
05DF20
025000
04C000
004000
ENDCHAR
STARTCHAR Tcaron
ENCODING 356
SWIDTH 578 0
DWIDTH 6 0
BBX 6 9 0 0
BITMAP
03AB10
007500
EFFFFA
66DB64
00C900
00C900
00C900
00C900
00C900
ENDCHAR
STARTCHAR tcaron
ENCODING 357
SWIDTH 570 0
DWIDTH 6 0
BBX 6 8 0 0
BITMAP
151000
3F2089
5F5347
DFFF20
4F3200
3F2000
1E9510
05DF20
ENDCHAR
STARTCHAR Tbar
ENCODING 358
SWIDTH 578 0
DWIDTH 6 0
BBX 6 7 0 0
BITMAP
EFFFFA
66DB64
00C900
06ED40
06ED40
00C900
00C900
ENDCHAR
STARTCHAR tbar
ENCODING 359
SWIDTH 437 0
DWIDTH 4 0
BBX 5 8 0 0
BITMAP
151000
3F2000
5F5300
DFFF20
7F8300
CFE200
1E9510
05DF20
ENDCHAR
STARTCHAR Utilde
ENCODING 360
SWIDTH 673 0
DWIDTH 7 0
BBX 7 9 0 0
BITMAP
01C8C000
02A78000
6F004F30
6F004F30
6F004F30
6F004F30
5F105F20
1EB7DC00
04CEB200
ENDCHAR
STARTCHAR utilde
ENCODING 361
SWIDTH 562 0
DWIDTH 6 0
BBX 6 8 0 -1
BITMAP
07C950
2B6B60
8C03F2
8C03F2
8C03F2
6E5AF2
0AFEB2
001000
ENDCHAR
STARTCHAR Umacron
ENCODING 362
SWIDTH 673 0
DWIDTH 7 0
BBX 7 9 0 0
BITMAP
00563000
008A6000
6F004F30
6F004F30
6F004F30
6F004F30
5F105F20
1EB7DC00
04CEB200
ENDCHAR
STARTCHAR umacron
ENCODING 363
SWIDTH 562 0
DWIDTH 6 0
BBX 6 8 0 -1
BITMAP
026600
27AA40
8C03F2
8C03F2
8C03F2
6E5AF2
0AFEB2
001000
ENDCHAR
STARTCHAR Ubreve
ENCODING 364
SWIDTH 673 0
DWIDTH 7 0
BBX 7 9 0 0
BITMAP
00885000
00392000
6F004F30
6F004F30
6F004F30
6F004F30
5F105F20
1EB7DC00
04CEB200
ENDCHAR
STARTCHAR ubreve
ENCODING 365
SWIDTH 562 0
DWIDTH 6 0
BBX 6 8 0 -1
BITMAP
039A00
238640
8C03F2
8C03F2
8C03F2
6E5AF2
0AFEB2
001000
ENDCHAR
STARTCHAR Uring
ENCODING 366
SWIDTH 673 0
DWIDTH 7 0
BBX 7 9 0 0
BITMAP
006C3000
005B2000
6F004F30
6F004F30
6F004F30
6F004F30
5F105F20
1EB7DC00
04CEB200
ENDCHAR
STARTCHAR uring
ENCODING 367
SWIDTH 562 0
DWIDTH 6 0
BBX 6 8 0 -1
BITMAP
01B900
23A740
8C03F2
8C03F2
8C03F2
6E5AF2
0AFEB2
001000
ENDCHAR
STARTCHAR Uhungarumlaut
ENCODING 368
SWIDTH 673 0
DWIDTH 7 0
BBX 7 10 0 0
BITMAP
00131000
009CB700
0073A100
6F004F30
6F004F30
6F004F30
6F004F30
5F105F20
1EB7DC00
04CEB200
ENDCHAR
STARTCHAR uhungarumlaut
ENCODING 369
SWIDTH 562 0
DWIDTH 6 0
BBX 6 9 0 -1
BITMAP
003010
03E9D1
265A80
8C03F2
8C03F2
8C03F2
6E5AF2
0AFEB2
001000
ENDCHAR
STARTCHAR Uogonek
ENCODING 370
SWIDTH 673 0
DWIDTH 7 0
BBX 7 9 0 -2
BITMAP
6F004F30
6F004F30
6F004F30
6F004F30
6F105F20
2EB7DC00
04DFB200
00970000
006B2000
ENDCHAR
STARTCHAR uogonek
ENCODING 371
SWIDTH 562 0
DWIDTH 6 0
BBX 6 8 0 -2
BITMAP
230140
8C03F2
8C03F2
8C03F2
6E5AF2
0AFEB2
0011C2
0001A7
ENDCHAR
STARTCHAR Wcircumflex
ENCODING 372
SWIDTH 819 0
DWIDTH 8 0
BBX 8 10 0 -1
BITMAP
00068000
001A9300
6F09C0C9
6F09C0C9
6F09C0C9
6F09C0C9
6F09C0C9
5F6CE5E7
0AFDCFC1
00100100
ENDCHAR
STARTCHAR wcircumflex
ENCODING 373
SWIDTH 756 0
DWIDTH 8 0
BBX 8 9 0 -1
BITMAP
000A4000
0049B000
23031130
8C0D73F2
8C0D73F2
8C0D73F2
7E5EA8F1
1CFCEF70
00100000
ENDCHAR
STARTCHAR Ycircumflex
ENCODING 374
SWIDTH 620 0
DWIDTH 6 0
BBX 6 9 0 0
BITMAP
006800
01A930
BB008E
BB008E
AC009D
4FA9F7
05DE70
009C00
009C00
ENDCHAR
STARTCHAR ycircumflex
ENCODING 375
SWIDTH 562 0
DWIDTH 6 0
BBX 6 10 0 -2
BITMAP
00A500
049B00
230140
8C03F2
8C03F2
8C03F2
6E5AF2
0AFFF1
016CC0
04FB20
ENDCHAR
STARTCHAR Ydieresis
ENCODING 376
SWIDTH 620 0
DWIDTH 6 0
BBX 6 9 0 0
BITMAP
025330
038550
BB008E
BB008E
AC009D
4FA9F7
05DE70
009C00
009C00
ENDCHAR
STARTCHAR Zacute
ENCODING 377
SWIDTH 586 0
DWIDTH 6 0
BBX 6 9 0 0
BITMAP
000850
004C30
CFFFF6
566ED0
006F50
00DC00
07F400
1EE664
8FFFFA
ENDCHAR
STARTCHAR zacute
ENCODING 378
SWIDTH 481 0
DWIDTH 5 0
BBX 5 8 0 0
BITMAP
003B00
00B800
233320
CFFF30
12C900
05E100
1DB530
7FFF90
ENDCHAR
STARTCHAR Zdotaccent
ENCODING 379
SWIDTH 586 0
DWIDTH 6 0
BBX 6 9 0 0
BITMAP
005400
005400
CFFFF6
566ED0
006F50
00DC00
07F400
1EE664
8FFFFA
ENDCHAR
STARTCHAR zdotaccent
ENCODING 380
SWIDTH 481 0
DWIDTH 5 0
BBX 5 7 0 0
BITMAP
018000
24B320
CFFF30
12C900
05E100
1DB530
7FFF90
ENDCHAR
STARTCHAR Zcaron
ENCODING 381
SWIDTH 586 0
DWIDTH 6 0
BBX 6 9 0 0
BITMAP
02BB10
007600
CFFFF6
566ED0
006F50
00DC00
07F400
1EE664
8FFFFA
ENDCHAR
STARTCHAR zcaron
ENCODING 382
SWIDTH 481 0
DWIDTH 5 0
BBX 5 8 0 0
BITMAP
0A9700
02A100
233320
CFFF30
12C900
05E100
1DB530
7FFF90
ENDCHAR
STARTCHAR AEacute
ENCODING 508
SWIDTH 988 0
DWIDTH 10 0
BBX 10 9 0 0
BITMAP
000003A000
00000C7000
04CFFFFFF8
1EB68F8663
5F104F5310
6F004FFF70
6FCCDF5310
6F99AF8663
6F004FFFF8
ENDCHAR
STARTCHAR aeacute
ENCODING 509
SWIDTH 976 0
DWIDTH 10 0
BBX 10 9 0 -1
BITMAP
0000059000
00001D5000
0155023630
2EFFCEFEF5
9C13EF69D1
B900CF7E20
8E57FFF8B3
1AFE8BDFD3
0000000100
ENDCHAR
STARTCHAR Oslashacute
ENCODING 510
SWIDTH 777 0
DWIDTH 8 0
BBX 8 11 0 -1
BITMAP
0000A300
0006B200
00010000
03CFFDB0
2EC6AFC0
8E12E7F5
BB0B80E7
9D8C03F5
2EF76DD0
1DDFFB20
00021000
ENDCHAR
STARTCHAR oslashacute
ENCODING 511
SWIDTH 579 0
DWIDTH 6 0
BBX 6 9 0 -1
BITMAP
000950
005C30
015542
2EFFF2
9D3EF6
BAC7D8
7FD7F4
6EFE70
001000
ENDCHAR
STARTCHAR dotlessj
ENCODING 567
SWIDTH 237 0
DWIDTH 2 0
BBX 4 8 -2 -2
BITMAP
0023
007D
007D
007D
007D
008D
26E8
7E91
ENDCHAR
STARTCHAR circumflex
ENCODING 710
SWIDTH 267 0
DWIDTH 3 0
BBX 3 2 0 5
BITMAP
3A10
A860
ENDCHAR
STARTCHAR caron
ENCODING 711
SWIDTH 267 0
DWIDTH 3 0
BBX 3 2 0 5
BITMAP
B960
2910
ENDCHAR
STARTCHAR breve
ENCODING 728
SWIDTH 220 0
DWIDTH 2 0
BBX 3 2 0 5
BITMAP
B920
6800
ENDCHAR
STARTCHAR dotaccent
ENCODING 729
SWIDTH 125 0
DWIDTH 1 0
BBX 2 2 0 5
BITMAP
81
81
ENDCHAR
STARTCHAR ring
ENCODING 730
SWIDTH 192 0
DWIDTH 2 0
BBX 2 2 0 5
BITMAP
BA
98
ENDCHAR
STARTCHAR ogonek
ENCODING 731
SWIDTH 212 0
DWIDTH 2 0
BBX 2 3 0 -2
BITMAP
12
C3
99
ENDCHAR
STARTCHAR tilde
ENCODING 732
SWIDTH 321 0
DWIDTH 3 0
BBX 4 2 0 5
BITMAP
AAB3
B6A1
ENDCHAR
STARTCHAR hungarumlaut
ENCODING 733
SWIDTH 384 0
DWIDTH 4 0
BBX 4 3 0 5
BITMAP
0310
8DB8
73A1
ENDCHAR
STARTCHAR uni0312
ENCODING 786
SWIDTH 192 0
DWIDTH 2 0
BBX 2 3 0 5
BITMAP
21
95
65
ENDCHAR
STARTCHAR uni0315
ENCODING 789
SWIDTH 132 0
DWIDTH 1 0
BBX 2 2 0 5
BITMAP
D3
92
ENDCHAR
STARTCHAR uni0326
ENCODING 806
SWIDTH 193 0
DWIDTH 2 0
BBX 2 3 0 -3
BITMAP
43
79
22
ENDCHAR
STARTCHAR pi
ENCODING 960
SWIDTH 555 0
DWIDTH 6 0
BBX 6 6 0 0
BITMAP
344441
CFFFF6
2F6C91
0F5C80
0F5C80
0F5C80
ENDCHAR
STARTCHAR Wgrave
ENCODING 7808
SWIDTH 819 0
DWIDTH 8 0
BBX 8 10 0 -1
BITMAP
00580000
003C4000
6F09C0C9
6F09C0C9
6F09C0C9
6F09C0C9
6F09C0C9
5F6CE5E7
0AFDCFC1
00100100
ENDCHAR
STARTCHAR wgrave
ENCODING 7809
SWIDTH 756 0
DWIDTH 8 0
BBX 8 9 0 -1
BITMAP
00A30000
007C0000
23031130
8C0D73F2
8C0D73F2
8C0D73F2
7E5EA8F1
1CFCEF70
00100000
ENDCHAR
STARTCHAR Wacute
ENCODING 7810
SWIDTH 819 0
DWIDTH 8 0
BBX 8 10 0 -1
BITMAP
00006800
0002D400
6F09C0C9
6F09C0C9
6F09C0C9
6F09C0C9
6F09C0C9
5F6CE5E7
0AFDCFC1
00100100
ENDCHAR
STARTCHAR wacute
ENCODING 7811
SWIDTH 756 0
DWIDTH 8 0
BBX 8 9 0 -1
BITMAP
00009500
0005C300
23032130
8C0D73F2
8C0D73F2
8C0D73F2
7E5EA8F1
1CFCEF70
00100000
ENDCHAR
STARTCHAR Wdieresis
ENCODING 7812
SWIDTH 819 0
DWIDTH 8 0
BBX 8 10 0 -1
BITMAP
00253300
00385500
6F09C0C9
6F09C0C9
6F09C0C9
6F09C0C9
6F09C0C9
5F6CE5E7
0AFDCFC1
00100100
ENDCHAR
STARTCHAR wdieresis
ENCODING 7813
SWIDTH 756 0
DWIDTH 8 0
BBX 8 8 0 -1
BITMAP
00436100
2367A330
8C0D73F2
8C0D73F2
8C0D73F2
7E5EA8F1
1CFCEF70
00100000
ENDCHAR
STARTCHAR Ygrave
ENCODING 7922
SWIDTH 620 0
DWIDTH 6 0
BBX 6 9 0 0
BITMAP
086000
05D100
BB008E
BB008E
AC009D
4FA9F7
05DE70
009C00
009C00
ENDCHAR
STARTCHAR ygrave
ENCODING 7923
SWIDTH 562 0
DWIDTH 6 0
BBX 6 10 0 -2
BITMAP
1B2000
18B000
230140
8C03F2
8C03F2
8C03F2
6E5AF2
0AFFF1
016CC0
04FB20
ENDCHAR
STARTCHAR endash
ENCODING 8211
SWIDTH 418 0
DWIDTH 4 0
BBX 4 3 0 2
BITMAP
1332
6FF9
1221
ENDCHAR
STARTCHAR emdash
ENCODING 8212
SWIDTH 719 0
DWIDTH 7 0
BBX 7 3 0 2
BITMAP
13333320
6FFFFF90
12222210
ENDCHAR
STARTCHAR quoteleft
ENCODING 8216
SWIDTH 246 0
DWIDTH 2 0
BBX 2 3 0 4
BITMAP
37
8E
37
ENDCHAR
STARTCHAR quoteright
ENCODING 8217
SWIDTH 245 0
DWIDTH 2 0
BBX 2 3 0 4
BITMAP
7D
4E
14
ENDCHAR
STARTCHAR quotesinglbase
ENCODING 8218
SWIDTH 264 0
DWIDTH 3 0
BBX 3 4 0 -2
BITMAP
1400
7F20
1D00
0100
ENDCHAR
STARTCHAR quotedblleft
ENCODING 8220
SWIDTH 445 0
DWIDTH 4 0
BBX 4 3 0 4
BITMAP
3737
8E9E
3737
ENDCHAR
STARTCHAR quotedblright
ENCODING 8221
SWIDTH 444 0
DWIDTH 4 0
BBX 4 3 0 4
BITMAP
7D7D
4E4E
1414
ENDCHAR
STARTCHAR quotedblbase
ENCODING 8222
SWIDTH 463 0
DWIDTH 5 0
BBX 5 4 0 -2
BITMAP
141400
7F8F20
1D1D00
010100
ENDCHAR
STARTCHAR dagger
ENCODING 8224
SWIDTH 434 0
DWIDTH 4 0
BBX 4 9 0 -1
BITMAP
08D0
29E3
AFFF
19D2
08D0
08D0
08D0
08D0
08D0
ENDCHAR
STARTCHAR daggerdbl
ENCODING 8225
SWIDTH 452 0
DWIDTH 5 0
BBX 5 9 0 -1
BITMAP
07F000
28F300
9FFF20
18F200
07F000
28F300
9FFF20
18F200
07F000
ENDCHAR
STARTCHAR bullet
ENCODING 8226
SWIDTH 354 0
DWIDTH 4 0
BBX 3 3 0 2
BITMAP
0850
3FB0
0520
ENDCHAR
STARTCHAR ellipsis
ENCODING 8230
SWIDTH 789 0
DWIDTH 8 0
BBX 8 3 0 -1
BITMAP
14022040
7F1CB3F5
14032040
ENDCHAR
STARTCHAR perthousand
ENCODING 8240
SWIDTH 998 0
DWIDTH 10 0
BBX 10 9 0 -1
BITMAP
0100000000
4ED06A0000
96C3D20000
7BE9800000
055D550360
0099DC6EB7
03D4A79C59
0B51DE3CE5
0000000010
ENDCHAR
STARTCHAR guilsinglleft
ENCODING 8249
SWIDTH 403 0
DWIDTH 4 0
BBX 4 5 0 0
BITMAP
01C5
1BC1
8F30
0AE3
0093
ENDCHAR
STARTCHAR guilsinglright
ENCODING 8250
SWIDTH 402 0
DWIDTH 4 0
BBX 4 5 0 0
BITMAP
4C10
1CC1
03F8
2DB1
3900
ENDCHAR
STARTCHAR fraction
ENCODING 8260
SWIDTH 477 0
DWIDTH 5 0
BBX 5 7 0 0
BITMAP
000790
001D10
009700
02D000
0A5000
4C0000
C40000
ENDCHAR
STARTCHAR Euro
ENCODING 8364
SWIDTH 806 0
DWIDTH 8 0
BBX 8 9 0 -1
BITMAP
00000100
0009EFD4
00AE85B3
2EFFD000
3AF86000
8FFF8000
00BE75A3
001AFFD4
00001200
ENDCHAR
STARTCHAR trademark
ENCODING 8482
SWIDTH 606 0
DWIDTH 6 0
BBX 6 3 0 4
BITMAP
3B5BB5
081787
041443
ENDCHAR
STARTCHAR partialdiff
ENCODING 8706
SWIDTH 609 0
DWIDTH 6 0
BBX 6 8 0 0
BITMAP
006900
002F60
004CD0
1CFFF4
7E21D9
9B00BA
5F66F6
08FF90
ENDCHAR
STARTCHAR product
ENCODING 8719
SWIDTH 632 0
DWIDTH 6 0
BBX 6 7 0 0
BITMAP
9FFFFF
4DC9F6
0BA5F1
0BA5F1
0BA5F1
0BA5F1
0BA5F1
ENDCHAR
STARTCHAR minus
ENCODING 8722
SWIDTH 543 0
DWIDTH 5 0
BBX 5 3 0 2
BITMAP
133320
5FFFC0
122210
ENDCHAR
STARTCHAR infinity
ENCODING 8734
SWIDTH 771 0
DWIDTH 8 0
BBX 8 5 0 1
BITMAP
04824720
4FDEFEE1
8C0D81F4
6E8ED9F2
09D8AD60
ENDCHAR
STARTCHAR approxequal
ENCODING 8776
SWIDTH 476 0
DWIDTH 5 0
BBX 5 5 0 1
BITMAP
162610
5EDF10
283700
5EDF20
253500
ENDCHAR
STARTCHAR notequal
ENCODING 8800
SWIDTH 512 0
DWIDTH 5 0
BBX 5 7 0 0
BITMAP
000720
236F20
8FFF90
25F730
8FFF90
1D8210
191000
ENDCHAR
STARTCHAR fi
ENCODING 64257
SWIDTH 650 0
DWIDTH 7 0
BBX 7 8 0 0
BITMAP
02AC5700
0DC89F20
4F644600
CFFFFF00
3F416F00
2F305F00
2F305F00
2F305F00
ENDCHAR
STARTCHAR fl
ENCODING 64258
SWIDTH 631 0
DWIDTH 6 0
BBX 6 8 0 0
BITMAP
02ACCA
0DC8CC
4F638C
CFFD8C
3F418C
2F308C
2F308C
2F308C
ENDCHAR
STARTCHAR .notdef
ENCODING -1
SWIDTH 279 0
DWIDTH 3 0
BBX 1 1 0 0
BITMAP
00
ENDCHAR
STARTCHAR .null
ENCODING -1
SWIDTH 0 0
DWIDTH 0 0
BBX 1 1 0 0
BITMAP
00
ENDCHAR
STARTCHAR nonmarkingreturn
ENCODING -1
SWIDTH 279 0
DWIDTH 3 0
BBX 1 1 0 0
BITMAP
00
ENDCHAR
ENDFONT
